<svg xmlns="http://www.w3.org/2000/svg" fill="none" viewBox="0 0 24 24" id="Matter--Streamline-Outlined-Material" height="24" width="24">
  <desc>
    Matter Streamline Icon: https://streamlinehq.com
  </desc>
  <path fill="#000000" d="M12 9.95c-1 0 -1.94165 -0.17915 -2.825 -0.5375 -0.88335 -0.35835 -1.675 -0.84585 -2.375 -1.4625l1.375 -0.825c0.4 0.3 0.85835 0.5625 1.375 0.7875 0.51665 0.225 1.08335 0.3875 1.7 0.4875V2.95L12 2.5l0.75 0.45v5.45c0.6 -0.1 1.1625 -0.2625 1.6875 -0.4875 0.525 -0.225 0.9875 -0.4875 1.3875 -0.7875l1.375 0.825c-0.7 0.61665 -1.49165 1.10415 -2.375 1.4625C13.94165 9.77085 13 9.95 12 9.95Zm-1.65 9.925 -1.4 -0.75c0.01665 -0.13335 0.02915 -0.25835 0.0375 -0.375 0.00835 -0.11665 0.0125 -0.24165 0.0125 -0.375 0 -0.4 -0.04585 -0.82085 -0.1375 -1.2625 -0.09165 -0.44165 -0.22085 -0.87915 -0.3875 -1.3125l-4.7 2.85L3 18.225V17.35l4.675 -2.825c-0.38335 -0.45 -0.80415 -0.84585 -1.2625 -1.1875 -0.45835 -0.34165 -0.92915 -0.60415 -1.4125 -0.7875v-1.6c1.6 0.48335 2.91665 1.40415 3.95 2.7625 1.03335 1.35835 1.55 2.9125 1.55 4.6625 0 0.26665 -0.0125 0.525 -0.0375 0.775 -0.025 0.25 -0.0625 0.49165 -0.1125 0.725Zm3.3 0c-0.05 -0.23335 -0.0875 -0.475 -0.1125 -0.725 -0.025 -0.25 -0.0375 -0.50835 -0.0375 -0.775 0 -1.75 0.51665 -3.30415 1.55 -4.6625 1.03335 -1.35835 2.35 -2.27915 3.95 -2.7625v1.6c-0.48335 0.18335 -0.95415 0.44585 -1.4125 0.7875 -0.45835 0.34165 -0.87915 0.7375 -1.2625 1.1875L21 17.35v0.875l-0.775 0.425 -4.7 -2.85c-0.16665 0.43335 -0.29585 0.87085 -0.3875 1.3125 -0.09165 0.44165 -0.1375 0.8625 -0.1375 1.2625 0 0.13335 0.00415 0.25835 0.0125 0.375 0.00835 0.11665 0.02085 0.24165 0.0375 0.375l-1.4 0.75Z" stroke-width="0.5"></path>
</svg>